<svg width="500" height="138" viewBox="0 0 500 138" fill="none" xmlns="http://www.w3.org/2000/svg">
<path d="M371.77 22.0661H428.965C430.466 22.0661 431.702 20.8304 431.702 19.3299C431.702 17.8294 430.466 16.5937 428.965 16.5937H371.77C370.269 16.5937 369.034 17.8294 369.034 19.3299C369.034 20.8304 370.269 22.0661 371.77 22.0661Z" fill="white"/>
<path d="M320.577 48.722H377.772C379.272 48.722 380.508 47.4863 380.508 45.9858C380.508 44.4853 379.272 43.2496 377.772 43.2496H320.577C319.076 43.2496 317.84 44.4853 317.84 45.9858C317.84 47.4863 319.076 48.722 320.577 48.722Z" fill="white"/>
<path d="M335.935 76.7018C335.935 78.2023 337.17 79.438 338.671 79.438H395.866C397.367 79.438 398.602 78.2023 398.602 76.7018C398.602 75.2013 397.367 73.9656 395.866 73.9656H338.671C337.17 74.0539 335.935 75.2013 335.935 76.7018Z" fill="white"/>
<path d="M368.681 108.389H317.223C315.722 108.389 314.486 109.624 314.486 111.125C314.486 112.625 315.722 113.861 317.223 113.861H368.681C370.181 113.861 371.417 112.625 371.417 111.125C371.417 109.624 370.181 108.389 368.681 108.389Z" fill="white"/>
<path d="M461.182 39.1894C469.39 39.1894 476.01 32.5696 476.01 24.361C476.01 16.1524 469.39 9.53256 461.182 9.53256C452.973 9.53256 446.353 16.1524 446.353 24.361C446.353 32.4813 452.973 39.1894 461.182 39.1894Z" fill="white"/>
<path d="M485.631 34.8645C477.069 46.8684 465.683 48.1924 453.326 40.8665C452.532 40.3369 448.737 38.3068 447.942 37.8654C428.171 26.1263 408.4 30.716 395.16 49.2516C389.511 57.1071 402.574 64.6096 408.135 56.8423C415.02 47.2215 423.669 44.4853 433.202 47.4863C428.347 55.9597 424.023 64.3448 418.021 76.3488C412.019 88.2645 398.691 97.8853 385.98 90.3828C376.801 84.9987 368.416 98.2383 377.684 103.622C395.16 113.773 415.549 107.594 425.964 94.3547C426.317 94.5312 426.67 94.7078 427.112 94.8843C435.673 97.8853 446.795 105.741 450.237 108.565C453.679 111.39 459.505 125.6 462.947 132.838C467.184 141.576 480.777 135.221 476.54 126.483C472.568 118.363 466.036 102.122 460.829 97.9736C456.68 94.7078 448.648 88.5293 441.852 85.0869C446.442 76.1722 451.296 67.3458 456.327 58.6959C472.391 63.6387 487.749 57.8132 498.606 42.5435C504.255 34.5997 491.28 27.0972 485.631 34.8645Z" fill="white"/>
<path d="M34.7762 10.4152H72.0238C80.2324 10.4152 86.5874 11.7392 91.1772 14.3871C96.9144 17.8294 99.8271 23.3018 99.8271 30.8926C99.8271 37.3359 98.3266 43.1614 95.2374 48.369C92.1481 53.5766 87.8231 58.078 82.1742 61.8734C87.2053 66.1984 90.6476 69.9055 92.6777 72.9947C95.3256 77.2314 96.6496 82.1742 96.6496 87.8232C96.6496 99.3858 92.4129 108.742 83.8512 116.068C75.7309 123.041 65.757 126.571 53.9296 126.571H12.8866C9.09123 126.571 6.00198 125.512 3.61883 123.482C1.23569 121.452 0 118.451 0 114.567C0 113.596 0.0882672 112.449 0.264796 111.302C0.441325 110.154 0.529589 109.183 0.706118 108.565L14.2106 26.7442C15.1815 20.7422 17.2998 16.5055 20.5656 14.1223C23.6549 11.6509 28.4212 10.4152 34.7762 10.4152ZM48.1041 102.21C53.5765 102.21 57.725 101.416 60.726 99.9154C64.7861 97.7971 66.9045 94.2665 66.9045 89.2354C66.9045 84.0278 62.756 79.8794 54.4592 76.7901C47.9276 74.3187 41.396 73.1713 35.041 73.1713L30.0099 102.299H48.1041V102.21ZM57.725 53.1352C61.5203 51.2817 64.2565 49.6047 66.0218 48.2807C69.3759 45.721 71.0529 43.1614 71.0529 40.4252C71.0529 38.5716 70.3468 37.0711 69.0228 35.9237C67.6988 34.7762 66.0218 34.2466 63.9917 34.2466H41.043L38.5716 50.2225L57.725 53.1352Z" fill="#0097A7"/>
<path d="M128.513 92.9425C129.484 97.3557 131.955 100.445 135.839 102.299C138.752 103.622 142.724 104.329 147.843 104.329L162.142 103.799C166.908 103.799 170.439 104.417 172.645 105.653C175.735 107.418 177.323 110.507 177.323 115.009C177.323 120.216 173.793 123.923 166.643 126.13C161.789 127.719 155.963 128.425 149.343 128.425C134.25 128.425 122.952 126.395 115.45 122.423C105.211 116.95 100.18 107.33 100.18 93.4721C100.18 77.9375 104.682 64.9627 113.861 54.5475C123.482 43.4261 136.016 37.9537 151.285 37.9537C161.259 37.9537 169.379 40.9547 175.646 46.8685C181.913 52.7822 185.002 60.726 185.002 70.6999C185.002 78.2023 183.767 83.6747 181.383 87.0288C178.471 91.0007 173.44 93.0308 166.114 93.0308H128.513V92.9425ZM156.405 74.3187L156.758 69.8172C156.758 66.6397 155.875 63.9035 154.11 61.6969C152.344 59.4903 149.873 58.3428 146.784 58.3428C142.812 58.3428 139.458 60.0198 136.81 63.4622C134.603 66.3749 133.015 69.9055 131.955 74.2304H156.405V74.3187Z" fill="#0097A7"/>
<path d="M243.433 6.61984C249.877 6.61984 254.202 7.59076 256.408 9.62084C258.262 11.2979 259.233 13.9458 259.233 17.5646C259.233 23.4784 256.938 27.362 252.436 29.2156C246.081 30.4513 239.815 31.5987 233.636 32.7461C232.665 33.5405 231.959 34.4232 231.518 35.5706C231.165 36.718 230.812 37.6889 230.635 38.5716L235.313 38.2185C240.874 38.2185 244.846 38.9246 247.317 40.2486C250.671 42.1022 252.348 45.6327 252.348 50.7521C252.348 56.3127 250.23 60.0198 245.905 61.8734C242.904 63.1974 238.314 63.9035 232.136 63.9035H227.458L219.955 107.771C219.072 113.332 217.484 117.745 215.1 121.099C212.1 125.424 208.128 127.63 203.097 127.63C199.742 127.63 197.006 126.571 194.711 124.541C192.417 122.511 191.269 119.775 191.269 116.244C191.269 114.479 191.357 113.067 191.622 112.008C191.887 110.948 191.975 110.242 191.975 109.713L199.654 63.8152C195.329 63.8152 192.152 63.1091 190.21 61.7851C187.65 60.1081 186.415 57.1954 186.415 52.9587C186.415 48.1041 188.092 44.4853 191.446 42.1904C194.005 40.4251 197.977 39.1012 203.45 38.2185C203.45 27.7151 206.804 19.7713 213.423 14.2106C219.602 9.17952 228.075 6.61984 238.844 6.61984H243.433Z" fill="white"/>
<path d="M271.413 37.8655C274.502 37.8655 277.327 38.8364 279.71 40.6899C282.182 42.5435 283.329 45.1032 283.329 48.1924C283.329 55.2536 282.181 64.7861 279.798 76.6136C276.886 91.2655 275.209 100.71 274.767 104.858C273.973 111.743 272.561 116.95 270.442 120.481C267.441 125.336 262.852 127.807 256.673 127.807C253.319 127.807 250.671 126.748 248.729 124.541C246.787 122.423 245.817 119.51 245.817 115.98C245.817 112.096 246.258 107.683 247.229 102.652C248.2 97.6205 249.082 92.8542 249.965 88.1762L252.966 69.1993C255.084 56.754 256.32 50.1342 256.585 49.2516C259.409 41.6608 264.352 37.8655 271.413 37.8655ZM278.563 0C282.181 0 285.271 1.23571 287.742 3.79537C290.214 6.35504 291.361 9.44431 291.361 13.1514C291.361 18.1825 289.684 22.5075 286.33 26.2146C282.976 29.9217 278.739 31.7752 273.796 31.7752C269.471 31.7752 266.206 30.4512 264.087 27.8033C261.969 25.1554 260.821 21.6248 260.821 17.2998C260.821 12.9749 262.675 9.00298 266.382 5.38414C270.089 1.76529 274.149 0 278.563 0Z" fill="white"/>
<path d="M319.429 14.1223C322.783 14.1223 325.343 15.1815 327.285 17.2998C329.138 19.4182 330.109 22.1544 330.109 25.4202C330.109 27.4503 329.933 29.3921 329.668 31.2456C329.403 33.0992 328.962 35.6588 328.432 38.7481H332.404C337.965 38.7481 341.937 39.4542 344.408 40.7782C347.85 42.6317 349.527 46.1623 349.527 51.2817C349.527 56.5775 347.321 60.2846 343.084 62.2265C340.083 63.5504 335.582 64.2566 329.58 64.2566H325.078C323.754 71.0529 322.783 76.084 322.254 79.3498C321.106 85.44 320.577 90.6476 320.577 94.796C320.577 98.6797 324.372 100.975 331.963 101.592C339.553 102.299 343.349 106.006 343.349 112.714C343.349 118.451 340.789 122.599 335.67 125.159C331.786 127.189 326.667 128.16 320.224 128.16C311.044 128.16 304.248 127.013 299.923 124.629C294.009 121.452 291.096 115.626 291.096 107.153C291.096 101.239 291.802 94.443 293.215 86.5875C294.627 78.7319 296.039 71.2294 297.363 64.08C292.773 64.08 289.507 63.1974 287.566 61.4321C285.536 59.6668 284.565 56.4893 284.565 51.9878C284.565 47.4863 286.242 44.044 289.596 41.9256C292.95 39.8073 297.098 38.6599 301.953 38.6599C303.1 30.7161 304.336 25.1554 305.748 22.1544C308.573 16.7703 313.074 14.1223 319.429 14.1223Z" fill="white"/>
</svg>
